<svg width="47" height="47" xmlns="http://www.w3.org/2000/svg"><path d="M38.66 30.393c-.581-.577-1.386-.896-2.27-.896-.928 0-1.827.363-2.457 1l-4.015 4.021-1.082-.603c-2.379-1.325-5.648-3.143-9.095-6.605-3.46-3.466-5.274-6.75-6.6-9.149l-.591-1.057 4.018-4.024c1.326-1.335 1.37-3.462.099-4.742L9.247.9C8.67.324 7.866 0 6.981 0 6.053 0 5.16.369 4.524 1.006L2.7 2.84l-.169.284c-.68.87-1.232 1.853-1.649 2.919A12.074 12.074 0 0 0 .147 9c-.958 7.97 2.707 15.286 12.65 25.258C24.585 46.08 34.434 47 37.176 47c.466 0 .75-.03.83-.036a12.157 12.157 0 0 0 2.955-.746 11.643 11.643 0 0 0 2.9-1.645l.412-.327 1.704-1.68c1.326-1.33 1.37-3.451.094-4.731l-7.41-7.442z" fill="white" fill-rule="evenodd"/></svg>